<?xml version="1.0" standalone="no"?><!DOCTYPE svg PUBLIC "-//W3C//DTD SVG 1.1//EN" "http://www.w3.org/Graphics/SVG/1.1/DTD/svg11.dtd"><svg t="1734580306767" class="icon" viewBox="0 0 1024 1024" version="1.1" xmlns="http://www.w3.org/2000/svg" p-id="13808" xmlns:xlink="http://www.w3.org/1999/xlink" width="200" height="200"><path d="M950.826484 512.000213c0 282.751882-228.693238 511.999787-510.847787 511.999787-113.919953 0-219.221242-37.418651-304.213207-100.607958a470.82647 470.82647 0 0 0 230.058571 60.501308c118.613284 0 232.74657-44.970648 319.658533-125.653281a471.893137 471.893137 0 0 0 149.333271-309.887871 354.133186 354.133186 0 0 0 2.133333-33.578652c0.426666-17.834659-2.815999-46.079981-3.199999-55.295977l-0.426666 0.426666a1023.999573 1023.999573 0 0 0-4.351998-34.730652h-370.645179c-31.914653 59.647975-63.40264 119.55195-94.975961 179.370592h280.10655a294.826544 294.826544 0 0 1-45.866647 86.143964 290.986545 290.986545 0 0 1-102.527958 84.479965 289.962546 289.962546 0 0 1-129.279946 30.250654 289.962546 289.962546 0 0 1-100.607958-18.133326 292.053212 292.053212 0 0 1-139.221275-107.263955A294.101211 294.101211 0 0 1 73.173516 512.000213a293.546544 293.546544 0 0 1 22.271991-112.255953 295.25321 295.25321 0 0 1 63.40264-95.189294 290.986545 290.986545 0 0 1 94.975961-63.573306 293.887878 293.887878 0 0 1 111.999953-22.314658 290.986545 290.986545 0 0 1 172.501261 56.319977c28.287988-52.778645 56.191977-105.770623 84.181299-158.719934a470.399804 470.399804 0 0 0-485.290465-16.895993A509.439788 509.439788 0 0 1 439.978697 0.000427c282.111882 0 510.847787 229.247904 510.847787 511.999786" p-id="13809" fill="#FF4C00"></path></svg>